<svg xmlns="http://www.w3.org/2000/svg" width="24" height="24" fill="none" aria-hidden="true" data-icon="ShieldCheckmarkStandard">
  <path fill="currentColor" fill-rule="evenodd" d="M12.406 1.086a1 1 0 0 0-.812 0l-10 4.445A1 1 0 0 0 1 6.484c.111 2.78.361 6.293 1.8 9.408 1.468 3.18 4.151 5.892 8.96 7.079a1 1 0 0 0 .479 0c4.808-1.187 7.49-3.9 8.96-7.08 1.438-3.114 1.688-6.627 1.8-9.407a1 1 0 0 0-.594-.953l-10-4.445Zm-7.79 13.967c-1.155-2.5-1.459-5.368-1.587-7.972L12 3.094l8.97 3.987c-.127 2.604-.431 5.471-1.586 7.972-1.202 2.602-3.347 4.853-7.384 5.915-4.037-1.062-6.182-3.313-7.384-5.915Zm7.091.654 6-6-1.414-1.414L11 13.586l-2.293-2.293-1.414 1.414 3 3 .707.707.707-.707Z" clip-rule="evenodd"/>
</svg>
