<svg xmlns="http://www.w3.org/2000/svg" width="24" height="24" fill="none" aria-hidden="true" data-icon="ShieldCheckmarkFillStandard">
  <path fill="currentColor" fill-rule="evenodd" d="M11.594 1.086a1 1 0 0 1 .812 0l10 4.445a1 1 0 0 1 .593.953c-.111 2.78-.361 6.293-1.8 9.408-1.468 3.18-4.151 5.892-8.96 7.079a1 1 0 0 1-.479 0c-4.808-1.187-7.49-3.9-8.96-7.08C1.363 12.778 1.113 9.265 1 6.485a1 1 0 0 1 .594-.953l10-4.445Zm.113 14.621 6-6-1.414-1.414L11 13.586l-2.293-2.293-1.414 1.414 3 3 .707.707.707-.707Z" clip-rule="evenodd"/>
</svg>
