<svg xmlns="http://www.w3.org/2000/svg" width="24" height="24" fill="none" aria-hidden="true" data-icon="SettingsStandard">
  <path fill="currentColor" fill-rule="evenodd" d="M10.5 0a2 2 0 0 0-1.978 1.703l-.32 2.136c-.482.224-.94.49-1.37.792l-2.01-.791a2 2 0 0 0-2.464.86L.858 7.3a2 2 0 0 0 .486 2.565l1.69 1.346a9.085 9.085 0 0 0 0 1.58l-1.69 1.346a2 2 0 0 0-.486 2.565l1.5 2.598a2 2 0 0 0 2.464.861l2.01-.79c.43.301.888.567 1.37.791l.32 2.136A2 2 0 0 0 10.5 24h3a2 2 0 0 0 1.978-1.703l.32-2.136c.482-.224.94-.49 1.37-.792l2.01.791a2 2 0 0 0 2.464-.861l1.5-2.598a2 2 0 0 0-.486-2.565l-1.69-1.346a9.109 9.109 0 0 0 0-1.58l1.69-1.346a2 2 0 0 0 .486-2.565l-1.5-2.598a2 2 0 0 0-2.464-.861l-2.01.79a8.988 8.988 0 0 0-1.37-.791l-.32-2.136A2 2 0 0 0 13.5 0h-3ZM7.186 6.918a6.993 6.993 0 0 1 2.82-1.63L10.5 2h3l.493 3.288a6.992 6.992 0 0 1 2.821 1.63l3.096-1.217 1.5 2.598-2.6 2.071a7.018 7.018 0 0 1 0 3.26l2.6 2.071-1.5 2.598-3.096-1.218a6.993 6.993 0 0 1-2.82 1.631L13.5 22h-3l-.493-3.288a6.992 6.992 0 0 1-2.821-1.63L4.09 18.298l-1.5-2.598 2.6-2.071a7.019 7.019 0 0 1 0-3.26L2.59 8.3l1.5-2.598 3.096 1.218ZM10 12a2 2 0 1 1 4 0 2 2 0 0 1-4 0Zm2-4a4 4 0 1 0 0 8 4 4 0 0 0 0-8Z" clip-rule="evenodd"/>
</svg>
