<svg xmlns="http://www.w3.org/2000/svg" width="24" height="24" fill="none" aria-hidden="true" data-icon="UserStandard">
  <path fill="currentColor" fill-rule="evenodd" d="M15 5a3 3 0 1 1-6 0 3 3 0 0 1 6 0Zm2 0A5 5 0 1 1 7 5a5 5 0 0 1 10 0ZM4 21a8 8 0 1 1 16 0v.514A68.117 68.117 0 0 1 12 22a68.117 68.117 0 0 1-8-.486V21Zm17.15 2.378-.15-.99.151.99a1 1 0 0 0 .849-.99V21c0-5.523-4.477-10-10-10S2 15.477 2 21v1.389a1 1 0 0 0 .849.988L3 22.39c-.151.988-.15.988-.15.989h.003l.01.002.038.005.142.02a61.81 61.81 0 0 0 2.489.285C7.178 23.845 9.46 24 12 24a70.153 70.153 0 0 0 8.422-.523c.232-.03.412-.054.535-.072l.142-.02.038-.005.01-.002h.003Z" clip-rule="evenodd"/>
</svg>
